<mxfile host="app.diagrams.net" modified="2020-11-20T03:03:23.905Z" agent="5.0 (Windows NT 10.0; Win64; x64) AppleWebKit/537.36 (KHTML, like Gecko) Chrome/80.0.3987.149 Safari/537.36" etag="w7nLollxK019SPwMXw6x" version="13.9.9" type="github">
  <diagram id="EcU6fs2of1qnK9Dk19vS" name="Page-1">
    <mxGraphModel dx="1102" dy="543" grid="1" gridSize="10" guides="1" tooltips="1" connect="1" arrows="1" fold="1" page="1" pageScale="1" pageWidth="827" pageHeight="1169" math="0" shadow="0">
      <root>
        <mxCell id="0" />
        <mxCell id="1" parent="0" />
        <mxCell id="zIV8zk3hntRyOYn1ve9I-1" value="&lt;font style=&quot;font-size: 24px&quot;&gt;自动化数据链路图&lt;/font&gt;" style="swimlane;html=1;childLayout=stackLayout;startSize=40;rounded=0;shadow=0;labelBackgroundColor=none;strokeWidth=1;fontFamily=Verdana;fontSize=8;align=center;fillColor=none;" parent="1" vertex="1">
          <mxGeometry x="40" y="40" width="1070" height="780" as="geometry">
            <mxRectangle x="70" y="40" width="130" height="20" as="alternateBounds" />
          </mxGeometry>
        </mxCell>
        <mxCell id="zIV8zk3hntRyOYn1ve9I-2" value="传感器终端" style="swimlane;html=1;startSize=30;" parent="zIV8zk3hntRyOYn1ve9I-1" vertex="1">
          <mxGeometry y="40" width="160" height="740" as="geometry" />
        </mxCell>
        <mxCell id="zIV8zk3hntRyOYn1ve9I-3" value="" style="rounded=1;whiteSpace=wrap;html=1;shadow=0;fillColor=none;dashed=1;" parent="zIV8zk3hntRyOYn1ve9I-2" vertex="1">
          <mxGeometry x="10" y="102.5" width="120" height="97.5" as="geometry" />
        </mxCell>
        <mxCell id="zIV8zk3hntRyOYn1ve9I-4" value="" style="rounded=1;whiteSpace=wrap;html=1;shadow=0;fillColor=none;dashed=1;" parent="zIV8zk3hntRyOYn1ve9I-2" vertex="1">
          <mxGeometry x="20" y="320" width="120" height="102.5" as="geometry" />
        </mxCell>
        <mxCell id="zIV8zk3hntRyOYn1ve9I-5" value="厂家A/传感器1" style="rounded=1;whiteSpace=wrap;html=1;shadow=0;labelBackgroundColor=none;strokeWidth=1;fontFamily=Verdana;fontSize=8;align=center;arcSize=50;" parent="zIV8zk3hntRyOYn1ve9I-2" vertex="1">
          <mxGeometry x="20" y="112.5" width="100" height="35" as="geometry" />
        </mxCell>
        <mxCell id="zIV8zk3hntRyOYn1ve9I-6" value="厂家A/传感器2" style="rounded=1;whiteSpace=wrap;html=1;shadow=0;labelBackgroundColor=none;strokeWidth=1;fontFamily=Verdana;fontSize=8;align=center;arcSize=50;" parent="zIV8zk3hntRyOYn1ve9I-2" vertex="1">
          <mxGeometry x="20" y="152.5" width="100" height="35" as="geometry" />
        </mxCell>
        <mxCell id="zIV8zk3hntRyOYn1ve9I-8" value="厂家B/传感器1" style="rounded=1;whiteSpace=wrap;html=1;shadow=0;labelBackgroundColor=none;strokeWidth=1;fontFamily=Verdana;fontSize=8;align=center;arcSize=50;" parent="zIV8zk3hntRyOYn1ve9I-2" vertex="1">
          <mxGeometry x="30" y="332.5" width="100" height="35" as="geometry" />
        </mxCell>
        <mxCell id="zIV8zk3hntRyOYn1ve9I-9" value="厂家B/传感器2" style="rounded=1;whiteSpace=wrap;html=1;shadow=0;labelBackgroundColor=none;strokeWidth=1;fontFamily=Verdana;fontSize=8;align=center;arcSize=50;" parent="zIV8zk3hntRyOYn1ve9I-2" vertex="1">
          <mxGeometry x="30" y="372.5" width="100" height="35" as="geometry" />
        </mxCell>
        <mxCell id="zIV8zk3hntRyOYn1ve9I-11" value="" style="rounded=1;whiteSpace=wrap;html=1;shadow=0;fillColor=none;dashed=1;" parent="zIV8zk3hntRyOYn1ve9I-2" vertex="1">
          <mxGeometry x="20" y="440" width="120" height="100" as="geometry" />
        </mxCell>
        <mxCell id="zIV8zk3hntRyOYn1ve9I-12" value="厂家C/传感器1" style="rounded=1;whiteSpace=wrap;html=1;shadow=0;labelBackgroundColor=none;strokeWidth=1;fontFamily=Verdana;fontSize=8;align=center;arcSize=50;" parent="zIV8zk3hntRyOYn1ve9I-2" vertex="1">
          <mxGeometry x="30" y="452.5" width="100" height="35" as="geometry" />
        </mxCell>
        <mxCell id="zIV8zk3hntRyOYn1ve9I-13" value="厂家C/传感器2" style="rounded=1;whiteSpace=wrap;html=1;shadow=0;labelBackgroundColor=none;strokeWidth=1;fontFamily=Verdana;fontSize=8;align=center;arcSize=50;" parent="zIV8zk3hntRyOYn1ve9I-2" vertex="1">
          <mxGeometry x="30" y="492.5" width="100" height="35" as="geometry" />
        </mxCell>
        <mxCell id="st4LeBl220Tw4YvidnoS-21" value="人员定位传感器" style="rounded=1;whiteSpace=wrap;html=1;shadow=0;labelBackgroundColor=none;strokeWidth=1;fontFamily=Verdana;fontSize=8;align=center;arcSize=50;" parent="zIV8zk3hntRyOYn1ve9I-2" vertex="1">
          <mxGeometry x="30" y="227.5" width="100" height="35" as="geometry" />
        </mxCell>
        <mxCell id="st4LeBl220Tw4YvidnoS-25" value="&lt;font&gt;&lt;font style=&quot;font-size: 24px&quot;&gt;&lt;font&gt;.&lt;br&gt;&lt;/font&gt;.&lt;br&gt;.&lt;/font&gt;&lt;br&gt;&lt;/font&gt;" style="text;html=1;align=center;verticalAlign=middle;resizable=0;points=[];autosize=1;" parent="zIV8zk3hntRyOYn1ve9I-2" vertex="1">
          <mxGeometry x="70" y="667.5" width="20" height="60" as="geometry" />
        </mxCell>
        <mxCell id="xk5R8RiFJCvRWizvlUMw-13" value="" style="rounded=1;whiteSpace=wrap;html=1;shadow=0;fillColor=none;dashed=1;" parent="zIV8zk3hntRyOYn1ve9I-2" vertex="1">
          <mxGeometry x="20" y="560" width="120" height="100" as="geometry" />
        </mxCell>
        <mxCell id="xk5R8RiFJCvRWizvlUMw-14" value="厂家D/传感器1" style="rounded=1;whiteSpace=wrap;html=1;shadow=0;labelBackgroundColor=none;strokeWidth=1;fontFamily=Verdana;fontSize=8;align=center;arcSize=50;" parent="zIV8zk3hntRyOYn1ve9I-2" vertex="1">
          <mxGeometry x="30" y="572.5" width="100" height="35" as="geometry" />
        </mxCell>
        <mxCell id="xk5R8RiFJCvRWizvlUMw-15" value="厂家D/传感器2" style="rounded=1;whiteSpace=wrap;html=1;shadow=0;labelBackgroundColor=none;strokeWidth=1;fontFamily=Verdana;fontSize=8;align=center;arcSize=50;" parent="zIV8zk3hntRyOYn1ve9I-2" vertex="1">
          <mxGeometry x="30" y="612.5" width="100" height="35" as="geometry" />
        </mxCell>
        <mxCell id="zIV8zk3hntRyOYn1ve9I-16" style="edgeStyle=orthogonalEdgeStyle;rounded=1;html=1;labelBackgroundColor=none;startArrow=none;startFill=0;startSize=5;endArrow=classicThin;endFill=1;endSize=5;jettySize=auto;orthogonalLoop=1;strokeWidth=1;fontFamily=Verdana;fontSize=8" parent="zIV8zk3hntRyOYn1ve9I-1" source="zIV8zk3hntRyOYn1ve9I-5" target="zIV8zk3hntRyOYn1ve9I-20" edge="1">
          <mxGeometry relative="1" as="geometry" />
        </mxCell>
        <mxCell id="zIV8zk3hntRyOYn1ve9I-31" style="edgeStyle=orthogonalEdgeStyle;rounded=1;html=1;labelBackgroundColor=none;startArrow=none;startFill=0;startSize=5;endArrow=classicThin;endFill=1;endSize=5;jettySize=auto;orthogonalLoop=1;strokeWidth=1;fontFamily=Verdana;fontSize=8;exitX=1;exitY=0.5;exitDx=0;exitDy=0;" parent="zIV8zk3hntRyOYn1ve9I-1" source="zIV8zk3hntRyOYn1ve9I-12" target="zIV8zk3hntRyOYn1ve9I-33" edge="1">
          <mxGeometry relative="1" as="geometry">
            <mxPoint x="130" y="487.5" as="sourcePoint" />
            <Array as="points">
              <mxPoint x="155" y="510" />
              <mxPoint x="155" y="528" />
            </Array>
          </mxGeometry>
        </mxCell>
        <mxCell id="zIV8zk3hntRyOYn1ve9I-36" style="edgeStyle=orthogonalEdgeStyle;orthogonalLoop=1;jettySize=auto;html=1;exitX=1;exitY=0.5;exitDx=0;exitDy=0;entryX=0;entryY=0.5;entryDx=0;entryDy=0;rounded=1;" parent="zIV8zk3hntRyOYn1ve9I-1" source="zIV8zk3hntRyOYn1ve9I-13" target="zIV8zk3hntRyOYn1ve9I-33" edge="1">
          <mxGeometry relative="1" as="geometry">
            <mxPoint x="130" y="527.5" as="sourcePoint" />
          </mxGeometry>
        </mxCell>
        <mxCell id="zIV8zk3hntRyOYn1ve9I-18" value="第三方数据库" style="swimlane;html=1;startSize=30;" parent="zIV8zk3hntRyOYn1ve9I-1" vertex="1">
          <mxGeometry x="160" y="40" width="180" height="740" as="geometry" />
        </mxCell>
        <mxCell id="zIV8zk3hntRyOYn1ve9I-19" style="edgeStyle=orthogonalEdgeStyle;rounded=1;orthogonalLoop=1;jettySize=auto;html=1;exitX=0.5;exitY=0;exitDx=0;exitDy=0;entryX=0.5;entryY=1;entryDx=0;entryDy=0;" parent="zIV8zk3hntRyOYn1ve9I-18" source="zIV8zk3hntRyOYn1ve9I-20" target="zIV8zk3hntRyOYn1ve9I-22" edge="1">
          <mxGeometry relative="1" as="geometry" />
        </mxCell>
        <mxCell id="zIV8zk3hntRyOYn1ve9I-20" value="厂家A数据库&lt;br&gt;（表a:原始数据&lt;br&gt;&amp;nbsp; 表b:合规数据）" style="rounded=1;whiteSpace=wrap;html=1;shadow=0;labelBackgroundColor=none;strokeWidth=1;fontFamily=Verdana;fontSize=8;align=center;" parent="zIV8zk3hntRyOYn1ve9I-18" vertex="1">
          <mxGeometry x="20" y="117.5" width="120" height="60" as="geometry" />
        </mxCell>
        <mxCell id="zIV8zk3hntRyOYn1ve9I-22" value="&lt;font color=&quot;#ff0000&quot;&gt;国家数据库&lt;/font&gt;" style="ellipse;whiteSpace=wrap;html=1;rounded=0;shadow=0;dashed=1;fillColor=none;" parent="zIV8zk3hntRyOYn1ve9I-18" vertex="1">
          <mxGeometry x="60" y="40" width="120" height="47.5" as="geometry" />
        </mxCell>
        <mxCell id="zIV8zk3hntRyOYn1ve9I-23" value="b上传国家" style="text;html=1;align=center;verticalAlign=middle;resizable=0;points=[];autosize=1;" parent="zIV8zk3hntRyOYn1ve9I-18" vertex="1">
          <mxGeometry x="75" y="97.5" width="70" height="20" as="geometry" />
        </mxCell>
        <mxCell id="zIV8zk3hntRyOYn1ve9I-25" style="edgeStyle=orthogonalEdgeStyle;rounded=1;orthogonalLoop=1;jettySize=auto;html=1;exitX=0.5;exitY=0;exitDx=0;exitDy=0;" parent="zIV8zk3hntRyOYn1ve9I-18" source="zIV8zk3hntRyOYn1ve9I-26" target="zIV8zk3hntRyOYn1ve9I-27" edge="1">
          <mxGeometry relative="1" as="geometry" />
        </mxCell>
        <mxCell id="zIV8zk3hntRyOYn1ve9I-26" value="厂家B数据库&lt;br&gt;（表a:原始数据）" style="rounded=1;whiteSpace=wrap;html=1;shadow=0;labelBackgroundColor=none;strokeWidth=1;fontFamily=Verdana;fontSize=8;align=center;" parent="zIV8zk3hntRyOYn1ve9I-18" vertex="1">
          <mxGeometry x="20" y="337.5" width="120" height="60" as="geometry" />
        </mxCell>
        <mxCell id="zIV8zk3hntRyOYn1ve9I-27" value="&lt;font color=&quot;#ff3333&quot;&gt;国家数据库&lt;/font&gt;" style="ellipse;whiteSpace=wrap;html=1;rounded=0;shadow=0;dashed=1;fillColor=none;" parent="zIV8zk3hntRyOYn1ve9I-18" vertex="1">
          <mxGeometry x="60" y="260" width="120" height="47.5" as="geometry" />
        </mxCell>
        <mxCell id="zIV8zk3hntRyOYn1ve9I-28" value="a上传国家" style="text;html=1;align=center;verticalAlign=middle;resizable=0;points=[];autosize=1;" parent="zIV8zk3hntRyOYn1ve9I-18" vertex="1">
          <mxGeometry x="75" y="317.5" width="70" height="20" as="geometry" />
        </mxCell>
        <mxCell id="zIV8zk3hntRyOYn1ve9I-33" value="厂家C的txt文件" style="rounded=1;whiteSpace=wrap;html=1;shadow=0;labelBackgroundColor=none;strokeWidth=1;fontFamily=Verdana;fontSize=8;align=center;" parent="zIV8zk3hntRyOYn1ve9I-18" vertex="1">
          <mxGeometry x="30" y="457.5" width="120" height="60" as="geometry" />
        </mxCell>
        <mxCell id="st4LeBl220Tw4YvidnoS-26" value="&lt;font&gt;&lt;font style=&quot;font-size: 24px&quot;&gt;&lt;font&gt;.&lt;br&gt;&lt;/font&gt;.&lt;br&gt;.&lt;/font&gt;&lt;br&gt;&lt;/font&gt;" style="text;html=1;align=center;verticalAlign=middle;resizable=0;points=[];autosize=1;" parent="zIV8zk3hntRyOYn1ve9I-18" vertex="1">
          <mxGeometry x="80" y="662.5" width="20" height="60" as="geometry" />
        </mxCell>
        <mxCell id="xk5R8RiFJCvRWizvlUMw-40" style="edgeStyle=orthogonalEdgeStyle;orthogonalLoop=1;jettySize=auto;html=1;exitX=1;exitY=0.5;exitDx=0;exitDy=0;entryX=0;entryY=0.5;entryDx=0;entryDy=0;rounded=1;" parent="zIV8zk3hntRyOYn1ve9I-18" target="xk5R8RiFJCvRWizvlUMw-41" edge="1">
          <mxGeometry relative="1" as="geometry">
            <mxPoint x="-30" y="632.5" as="sourcePoint" />
          </mxGeometry>
        </mxCell>
        <mxCell id="xk5R8RiFJCvRWizvlUMw-41" value="厂家D的控制器" style="rounded=1;whiteSpace=wrap;html=1;shadow=0;labelBackgroundColor=none;strokeWidth=1;fontFamily=Verdana;fontSize=8;align=center;" parent="zIV8zk3hntRyOYn1ve9I-18" vertex="1">
          <mxGeometry x="30" y="580" width="120" height="60" as="geometry" />
        </mxCell>
        <mxCell id="zIV8zk3hntRyOYn1ve9I-24" style="edgeStyle=orthogonalEdgeStyle;rounded=1;html=1;labelBackgroundColor=none;startArrow=none;startFill=0;startSize=5;endArrow=classicThin;endFill=1;endSize=5;jettySize=auto;orthogonalLoop=1;strokeWidth=1;fontFamily=Verdana;fontSize=8;exitX=1;exitY=0.5;exitDx=0;exitDy=0;" parent="zIV8zk3hntRyOYn1ve9I-1" target="zIV8zk3hntRyOYn1ve9I-26" edge="1">
          <mxGeometry relative="1" as="geometry">
            <mxPoint x="130" y="388.75" as="sourcePoint" />
            <Array as="points">
              <mxPoint x="155" y="389" />
              <mxPoint x="155" y="408" />
            </Array>
          </mxGeometry>
        </mxCell>
        <mxCell id="zIV8zk3hntRyOYn1ve9I-29" style="edgeStyle=orthogonalEdgeStyle;rounded=1;orthogonalLoop=1;jettySize=auto;html=1;exitX=1;exitY=0.5;exitDx=0;exitDy=0;entryX=0;entryY=0.5;entryDx=0;entryDy=0;" parent="zIV8zk3hntRyOYn1ve9I-1" target="zIV8zk3hntRyOYn1ve9I-26" edge="1">
          <mxGeometry relative="1" as="geometry">
            <mxPoint x="130" y="428.75" as="sourcePoint" />
          </mxGeometry>
        </mxCell>
        <mxCell id="zIV8zk3hntRyOYn1ve9I-38" value="自动化数据拦截程序" style="swimlane;html=1;startSize=30;" parent="zIV8zk3hntRyOYn1ve9I-1" vertex="1">
          <mxGeometry x="340" y="40" width="160" height="740" as="geometry" />
        </mxCell>
        <mxCell id="zIV8zk3hntRyOYn1ve9I-39" value="txt文件" style="rhombus;whiteSpace=wrap;html=1;rounded=0;shadow=0;labelBackgroundColor=none;strokeWidth=1;fontFamily=Verdana;fontSize=8;align=center;" parent="zIV8zk3hntRyOYn1ve9I-38" vertex="1">
          <mxGeometry x="30" y="160" width="80" height="60" as="geometry" />
        </mxCell>
        <mxCell id="zIV8zk3hntRyOYn1ve9I-40" value="txt文件" style="rhombus;whiteSpace=wrap;html=1;rounded=0;shadow=0;labelBackgroundColor=none;strokeWidth=1;fontFamily=Verdana;fontSize=8;align=center;" parent="zIV8zk3hntRyOYn1ve9I-38" vertex="1">
          <mxGeometry x="30" y="365" width="80" height="60" as="geometry" />
        </mxCell>
        <mxCell id="zIV8zk3hntRyOYn1ve9I-41" style="edgeStyle=orthogonalEdgeStyle;rounded=1;orthogonalLoop=1;jettySize=auto;html=1;exitX=0;exitY=0.5;exitDx=0;exitDy=0;entryX=0.929;entryY=0.625;entryDx=0;entryDy=0;entryPerimeter=0;startArrow=classic;startFill=1;" parent="zIV8zk3hntRyOYn1ve9I-38" source="zIV8zk3hntRyOYn1ve9I-40" edge="1">
          <mxGeometry relative="1" as="geometry">
            <mxPoint x="-39.97000000000003" y="350" as="targetPoint" />
            <Array as="points">
              <mxPoint x="10" y="395" />
              <mxPoint x="10" y="350" />
            </Array>
          </mxGeometry>
        </mxCell>
        <mxCell id="zIV8zk3hntRyOYn1ve9I-42" value="采集程序" style="rhombus;whiteSpace=wrap;html=1;rounded=0;shadow=0;labelBackgroundColor=none;strokeWidth=1;fontFamily=Verdana;fontSize=8;align=center;" parent="zIV8zk3hntRyOYn1ve9I-38" vertex="1">
          <mxGeometry x="30" y="460" width="80" height="60" as="geometry" />
        </mxCell>
        <mxCell id="zIV8zk3hntRyOYn1ve9I-43" style="edgeStyle=orthogonalEdgeStyle;rounded=1;orthogonalLoop=1;jettySize=auto;html=1;exitX=0;exitY=0.5;exitDx=0;exitDy=0;startArrow=classic;startFill=1;" parent="zIV8zk3hntRyOYn1ve9I-38" source="zIV8zk3hntRyOYn1ve9I-42" edge="1">
          <mxGeometry relative="1" as="geometry">
            <mxPoint x="-30" y="490" as="targetPoint" />
            <Array as="points">
              <mxPoint x="20" y="490" />
              <mxPoint x="20" y="490" />
            </Array>
          </mxGeometry>
        </mxCell>
        <mxCell id="st4LeBl220Tw4YvidnoS-24" value="&lt;font&gt;&lt;font style=&quot;font-size: 24px&quot;&gt;&lt;font&gt;.&lt;br&gt;&lt;/font&gt;.&lt;br&gt;.&lt;/font&gt;&lt;br&gt;&lt;/font&gt;" style="text;html=1;align=center;verticalAlign=middle;resizable=0;points=[];autosize=1;" parent="zIV8zk3hntRyOYn1ve9I-38" vertex="1">
          <mxGeometry x="70" y="657.5" width="20" height="60" as="geometry" />
        </mxCell>
        <mxCell id="xk5R8RiFJCvRWizvlUMw-43" value="采集程序" style="rhombus;whiteSpace=wrap;html=1;rounded=0;shadow=0;labelBackgroundColor=none;strokeWidth=1;fontFamily=Verdana;fontSize=8;align=center;" parent="zIV8zk3hntRyOYn1ve9I-38" vertex="1">
          <mxGeometry x="29" y="580" width="80" height="60" as="geometry" />
        </mxCell>
        <mxCell id="xk5R8RiFJCvRWizvlUMw-44" style="edgeStyle=orthogonalEdgeStyle;rounded=1;orthogonalLoop=1;jettySize=auto;html=1;exitX=0;exitY=0.5;exitDx=0;exitDy=0;startArrow=classic;startFill=1;" parent="zIV8zk3hntRyOYn1ve9I-38" source="xk5R8RiFJCvRWizvlUMw-43" edge="1">
          <mxGeometry relative="1" as="geometry">
            <mxPoint x="-30" y="610" as="targetPoint" />
            <Array as="points">
              <mxPoint x="19" y="610" />
              <mxPoint x="19" y="610" />
            </Array>
          </mxGeometry>
        </mxCell>
        <mxCell id="st4LeBl220Tw4YvidnoS-22" style="edgeStyle=orthogonalEdgeStyle;curved=1;orthogonalLoop=1;jettySize=auto;html=1;exitX=1;exitY=0.5;exitDx=0;exitDy=0;entryX=0;entryY=0.5;entryDx=0;entryDy=0;startArrow=none;startFill=0;endArrow=classic;endFill=1;" parent="zIV8zk3hntRyOYn1ve9I-1" source="st4LeBl220Tw4YvidnoS-21" target="st4LeBl220Tw4YvidnoS-1" edge="1">
          <mxGeometry relative="1" as="geometry" />
        </mxCell>
        <mxCell id="zIV8zk3hntRyOYn1ve9I-45" value="自动化服务+数据接口服务" style="swimlane;html=1;startSize=30;" parent="zIV8zk3hntRyOYn1ve9I-1" vertex="1">
          <mxGeometry x="500" y="40" width="180" height="740" as="geometry" />
        </mxCell>
        <mxCell id="ZTaninSRDtiNCGKmed8g-1" style="edgeStyle=orthogonalEdgeStyle;curved=1;orthogonalLoop=1;jettySize=auto;html=1;entryX=0;entryY=1;entryDx=0;entryDy=0;startArrow=none;startFill=0;endArrow=classic;endFill=1;strokeColor=#000000;dashed=1;dashPattern=1 1;exitX=0;exitY=0.109;exitDx=0;exitDy=0;exitPerimeter=0;" parent="zIV8zk3hntRyOYn1ve9I-45" source="zIV8zk3hntRyOYn1ve9I-46" target="zIV8zk3hntRyOYn1ve9I-47" edge="1">
          <mxGeometry relative="1" as="geometry">
            <mxPoint x="40" y="350" as="sourcePoint" />
            <Array as="points">
              <mxPoint x="20" y="412" />
            </Array>
          </mxGeometry>
        </mxCell>
        <mxCell id="zIV8zk3hntRyOYn1ve9I-46" value="OPC Server" style="rounded=1;whiteSpace=wrap;html=1;shadow=0;labelBackgroundColor=none;strokeWidth=1;fontFamily=Verdana;fontSize=8;align=center;" parent="zIV8zk3hntRyOYn1ve9I-45" vertex="1">
          <mxGeometry x="40" y="400" width="100" height="110" as="geometry" />
        </mxCell>
        <mxCell id="zIV8zk3hntRyOYn1ve9I-47" value="&lt;span style=&quot;font-size: 8px&quot;&gt;RealAutomateService&lt;/span&gt;" style="rounded=1;whiteSpace=wrap;html=1;shadow=0;labelBackgroundColor=none;strokeWidth=1;fontFamily=Verdana;fontSize=8;align=center;fillColor=#FF3333;" parent="zIV8zk3hntRyOYn1ve9I-45" vertex="1">
          <mxGeometry x="20" y="120" width="140" height="60" as="geometry" />
        </mxCell>
        <mxCell id="xk5R8RiFJCvRWizvlUMw-6" style="edgeStyle=orthogonalEdgeStyle;curved=1;orthogonalLoop=1;jettySize=auto;html=1;exitX=0.5;exitY=1;exitDx=0;exitDy=0;entryX=0.5;entryY=0;entryDx=0;entryDy=0;" parent="zIV8zk3hntRyOYn1ve9I-45" source="st4LeBl220Tw4YvidnoS-1" target="xk5R8RiFJCvRWizvlUMw-5" edge="1">
          <mxGeometry relative="1" as="geometry" />
        </mxCell>
        <mxCell id="st4LeBl220Tw4YvidnoS-1" value="采集程序" style="rounded=1;whiteSpace=wrap;html=1;shadow=0;labelBackgroundColor=none;strokeWidth=1;fontFamily=Verdana;fontSize=8;align=center;" parent="zIV8zk3hntRyOYn1ve9I-45" vertex="1">
          <mxGeometry x="50" y="220" width="70" height="50" as="geometry" />
        </mxCell>
        <mxCell id="xk5R8RiFJCvRWizvlUMw-5" value="映射为txt文件" style="rounded=1;whiteSpace=wrap;html=1;dashed=1;" parent="zIV8zk3hntRyOYn1ve9I-45" vertex="1">
          <mxGeometry x="35" y="310" width="100" height="40" as="geometry" />
        </mxCell>
        <mxCell id="zIV8zk3hntRyOYn1ve9I-56" value="开发系统" style="swimlane;html=1;startSize=30;gradientColor=#ffffff;" parent="zIV8zk3hntRyOYn1ve9I-1" vertex="1">
          <mxGeometry x="680" y="40" width="230" height="740" as="geometry">
            <mxRectangle x="800" y="40" width="30" height="775" as="alternateBounds" />
          </mxGeometry>
        </mxCell>
        <mxCell id="zIV8zk3hntRyOYn1ve9I-57" value="矿山云图系统" style="shape=cube;whiteSpace=wrap;html=1;boundedLbl=1;backgroundOutline=1;darkOpacity=0.05;darkOpacity2=0.1;rounded=0;shadow=0;fillColor=none;" parent="zIV8zk3hntRyOYn1ve9I-56" vertex="1">
          <mxGeometry x="55" y="90" width="120" height="80" as="geometry" />
        </mxCell>
        <mxCell id="zIV8zk3hntRyOYn1ve9I-58" value="辅助运输系统" style="shape=cube;whiteSpace=wrap;html=1;boundedLbl=1;backgroundOutline=1;darkOpacity=0.05;darkOpacity2=0.1;rounded=0;shadow=0;fillColor=none;" parent="zIV8zk3hntRyOYn1ve9I-56" vertex="1">
          <mxGeometry x="55" y="220" width="120" height="80" as="geometry" />
        </mxCell>
        <mxCell id="zIV8zk3hntRyOYn1ve9I-59" value="产量平衡系统" style="shape=cube;whiteSpace=wrap;html=1;boundedLbl=1;backgroundOutline=1;darkOpacity=0.05;darkOpacity2=0.1;rounded=0;shadow=0;fillColor=none;" parent="zIV8zk3hntRyOYn1ve9I-56" vertex="1">
          <mxGeometry x="55" y="490" width="120" height="80" as="geometry" />
        </mxCell>
        <mxCell id="st4LeBl220Tw4YvidnoS-2" value="人员定位系统" style="shape=cube;whiteSpace=wrap;html=1;boundedLbl=1;backgroundOutline=1;darkOpacity=0.05;darkOpacity2=0.1;rounded=0;shadow=0;fillColor=none;" parent="zIV8zk3hntRyOYn1ve9I-56" vertex="1">
          <mxGeometry x="55" y="350" width="120" height="80" as="geometry" />
        </mxCell>
        <mxCell id="st4LeBl220Tw4YvidnoS-28" value="&lt;font&gt;&lt;font style=&quot;font-size: 24px&quot;&gt;&lt;font&gt;.&lt;br&gt;&lt;/font&gt;.&lt;br&gt;.&lt;/font&gt;&lt;br&gt;&lt;/font&gt;" style="text;html=1;align=center;verticalAlign=middle;resizable=0;points=[];autosize=1;" parent="zIV8zk3hntRyOYn1ve9I-56" vertex="1">
          <mxGeometry x="105" y="647.5" width="20" height="60" as="geometry" />
        </mxCell>
        <mxCell id="zIV8zk3hntRyOYn1ve9I-61" style="edgeStyle=orthogonalEdgeStyle;rounded=1;orthogonalLoop=1;jettySize=auto;html=1;exitX=1;exitY=0.5;exitDx=0;exitDy=0;entryX=0;entryY=0.5;entryDx=0;entryDy=0;" parent="zIV8zk3hntRyOYn1ve9I-1" source="zIV8zk3hntRyOYn1ve9I-6" target="zIV8zk3hntRyOYn1ve9I-20" edge="1">
          <mxGeometry relative="1" as="geometry" />
        </mxCell>
        <mxCell id="zIV8zk3hntRyOYn1ve9I-63" style="edgeStyle=orthogonalEdgeStyle;rounded=1;orthogonalLoop=1;jettySize=auto;html=1;exitX=0;exitY=0.5;exitDx=0;exitDy=0;entryX=0.929;entryY=0.625;entryDx=0;entryDy=0;entryPerimeter=0;startArrow=classic;startFill=1;" parent="zIV8zk3hntRyOYn1ve9I-1" source="zIV8zk3hntRyOYn1ve9I-39" target="zIV8zk3hntRyOYn1ve9I-23" edge="1">
          <mxGeometry relative="1" as="geometry">
            <Array as="points">
              <mxPoint x="350" y="230" />
              <mxPoint x="350" y="150" />
            </Array>
          </mxGeometry>
        </mxCell>
        <mxCell id="zIV8zk3hntRyOYn1ve9I-64" style="edgeStyle=orthogonalEdgeStyle;rounded=1;orthogonalLoop=1;jettySize=auto;html=1;exitX=1;exitY=0.5;exitDx=0;exitDy=0;startArrow=none;startFill=0;dashed=1;" parent="zIV8zk3hntRyOYn1ve9I-1" source="zIV8zk3hntRyOYn1ve9I-40" edge="1">
          <mxGeometry relative="1" as="geometry">
            <Array as="points">
              <mxPoint x="450" y="486" />
            </Array>
            <mxPoint x="540" y="486" as="targetPoint" />
          </mxGeometry>
        </mxCell>
        <mxCell id="zIV8zk3hntRyOYn1ve9I-65" style="edgeStyle=orthogonalEdgeStyle;rounded=1;orthogonalLoop=1;jettySize=auto;html=1;dashed=1;startArrow=none;startFill=0;entryX=-0.005;entryY=0.619;entryDx=0;entryDy=0;exitX=1;exitY=0.5;exitDx=0;exitDy=0;entryPerimeter=0;" parent="zIV8zk3hntRyOYn1ve9I-1" source="zIV8zk3hntRyOYn1ve9I-42" target="zIV8zk3hntRyOYn1ve9I-46" edge="1">
          <mxGeometry relative="1" as="geometry">
            <mxPoint x="530" y="470" as="targetPoint" />
            <Array as="points">
              <mxPoint x="450" y="508" />
            </Array>
            <mxPoint x="410" y="470" as="sourcePoint" />
          </mxGeometry>
        </mxCell>
        <mxCell id="zIV8zk3hntRyOYn1ve9I-66" style="edgeStyle=orthogonalEdgeStyle;rounded=1;orthogonalLoop=1;jettySize=auto;html=1;exitX=1;exitY=0.5;exitDx=0;exitDy=0;dashed=1;startArrow=none;startFill=0;entryX=-0.011;entryY=0.186;entryDx=0;entryDy=0;entryPerimeter=0;" parent="zIV8zk3hntRyOYn1ve9I-1" source="zIV8zk3hntRyOYn1ve9I-39" target="zIV8zk3hntRyOYn1ve9I-46" edge="1">
          <mxGeometry relative="1" as="geometry">
            <Array as="points">
              <mxPoint x="480" y="230" />
              <mxPoint x="480" y="460" />
              <mxPoint x="539" y="460" />
            </Array>
            <mxPoint x="525" y="463" as="targetPoint" />
          </mxGeometry>
        </mxCell>
        <mxCell id="zIV8zk3hntRyOYn1ve9I-67" style="edgeStyle=orthogonalEdgeStyle;rounded=1;orthogonalLoop=1;jettySize=auto;html=1;exitX=0.5;exitY=0;exitDx=0;exitDy=0;entryX=0;entryY=0.5;entryDx=0;entryDy=0;dashed=1;startArrow=none;startFill=0;dashPattern=1 1;" parent="zIV8zk3hntRyOYn1ve9I-1" source="zIV8zk3hntRyOYn1ve9I-39" target="zIV8zk3hntRyOYn1ve9I-47" edge="1">
          <mxGeometry relative="1" as="geometry">
            <Array as="points">
              <mxPoint x="410" y="190" />
            </Array>
          </mxGeometry>
        </mxCell>
        <mxCell id="zIV8zk3hntRyOYn1ve9I-68" style="edgeStyle=orthogonalEdgeStyle;rounded=1;orthogonalLoop=1;jettySize=auto;html=1;exitX=0.5;exitY=0;exitDx=0;exitDy=0;entryX=0;entryY=0.75;entryDx=0;entryDy=0;dashed=1;dashPattern=1 1;startArrow=none;startFill=0;" parent="zIV8zk3hntRyOYn1ve9I-1" source="zIV8zk3hntRyOYn1ve9I-40" target="zIV8zk3hntRyOYn1ve9I-47" edge="1">
          <mxGeometry relative="1" as="geometry">
            <Array as="points">
              <mxPoint x="410" y="370" />
              <mxPoint x="460" y="370" />
              <mxPoint x="460" y="205" />
            </Array>
          </mxGeometry>
        </mxCell>
        <mxCell id="zIV8zk3hntRyOYn1ve9I-69" style="edgeStyle=orthogonalEdgeStyle;rounded=1;orthogonalLoop=1;jettySize=auto;html=1;exitX=1;exitY=0.5;exitDx=0;exitDy=0;startArrow=none;startFill=0;entryX=0;entryY=0.5;entryDx=0;entryDy=0;" parent="zIV8zk3hntRyOYn1ve9I-1" source="zIV8zk3hntRyOYn1ve9I-20" target="zIV8zk3hntRyOYn1ve9I-52" edge="1">
          <mxGeometry relative="1" as="geometry">
            <Array as="points">
              <mxPoint x="300" y="160" />
              <mxPoint x="390" y="160" />
              <mxPoint x="390" y="115" />
            </Array>
          </mxGeometry>
        </mxCell>
        <mxCell id="zIV8zk3hntRyOYn1ve9I-70" value="抽数程序" style="edgeLabel;html=1;align=center;verticalAlign=middle;resizable=0;points=[];" parent="zIV8zk3hntRyOYn1ve9I-69" vertex="1" connectable="0">
          <mxGeometry x="0.0147" y="2" relative="1" as="geometry">
            <mxPoint as="offset" />
          </mxGeometry>
        </mxCell>
        <mxCell id="zIV8zk3hntRyOYn1ve9I-71" style="edgeStyle=orthogonalEdgeStyle;orthogonalLoop=1;jettySize=auto;html=1;exitX=0;exitY=0;exitDx=120;exitDy=50;exitPerimeter=0;entryX=0;entryY=0.5;entryDx=0;entryDy=0;curved=1;startArrow=none;startFill=0;strokeColor=#000099;" parent="zIV8zk3hntRyOYn1ve9I-1" source="zIV8zk3hntRyOYn1ve9I-57" target="zIV8zk3hntRyOYn1ve9I-52" edge="1">
          <mxGeometry relative="1" as="geometry" />
        </mxCell>
        <mxCell id="zIV8zk3hntRyOYn1ve9I-73" style="edgeStyle=orthogonalEdgeStyle;curved=1;orthogonalLoop=1;jettySize=auto;html=1;exitX=0;exitY=0;exitDx=0;exitDy=30;exitPerimeter=0;strokeColor=#000099;entryX=1;entryY=0.5;entryDx=0;entryDy=0;" parent="zIV8zk3hntRyOYn1ve9I-1" source="zIV8zk3hntRyOYn1ve9I-57" target="zIV8zk3hntRyOYn1ve9I-46" edge="1">
          <mxGeometry relative="1" as="geometry">
            <mxPoint x="600" y="440" as="targetPoint" />
            <Array as="points">
              <mxPoint x="690" y="160" />
              <mxPoint x="690" y="495" />
            </Array>
          </mxGeometry>
        </mxCell>
        <mxCell id="zIV8zk3hntRyOYn1ve9I-78" style="edgeStyle=orthogonalEdgeStyle;curved=1;orthogonalLoop=1;jettySize=auto;html=1;exitX=0;exitY=0;exitDx=0;exitDy=30;exitPerimeter=0;startArrow=none;startFill=0;endArrow=classic;endFill=1;strokeColor=#99004D;entryX=0.5;entryY=1;entryDx=0;entryDy=0;" parent="zIV8zk3hntRyOYn1ve9I-1" source="zIV8zk3hntRyOYn1ve9I-59" target="zIV8zk3hntRyOYn1ve9I-46" edge="1">
          <mxGeometry relative="1" as="geometry">
            <mxPoint x="590" y="490" as="targetPoint" />
            <Array as="points">
              <mxPoint x="735" y="570" />
              <mxPoint x="590" y="570" />
            </Array>
          </mxGeometry>
        </mxCell>
        <mxCell id="st4LeBl220Tw4YvidnoS-4" style="edgeStyle=orthogonalEdgeStyle;curved=1;orthogonalLoop=1;jettySize=auto;html=1;exitX=1;exitY=0.5;exitDx=0;exitDy=0;entryX=0;entryY=0;entryDx=0;entryDy=30;entryPerimeter=0;strokeColor=#009900;startArrow=classic;startFill=1;endArrow=none;endFill=0;" parent="zIV8zk3hntRyOYn1ve9I-1" source="zIV8zk3hntRyOYn1ve9I-47" target="zIV8zk3hntRyOYn1ve9I-58" edge="1">
          <mxGeometry relative="1" as="geometry">
            <Array as="points">
              <mxPoint x="700" y="190" />
              <mxPoint x="700" y="290" />
            </Array>
          </mxGeometry>
        </mxCell>
        <mxCell id="st4LeBl220Tw4YvidnoS-10" style="edgeStyle=orthogonalEdgeStyle;orthogonalLoop=1;jettySize=auto;html=1;exitX=0;exitY=0;exitDx=120;exitDy=50;exitPerimeter=0;entryX=0;entryY=0.5;entryDx=0;entryDy=0;startArrow=none;startFill=0;endArrow=classic;endFill=1;strokeColor=#99004D;curved=1;" parent="zIV8zk3hntRyOYn1ve9I-1" source="zIV8zk3hntRyOYn1ve9I-59" target="st4LeBl220Tw4YvidnoS-8" edge="1">
          <mxGeometry relative="1" as="geometry" />
        </mxCell>
        <mxCell id="st4LeBl220Tw4YvidnoS-6" style="edgeStyle=orthogonalEdgeStyle;orthogonalLoop=1;jettySize=auto;html=1;exitX=1;exitY=0.5;exitDx=0;exitDy=0;startArrow=classic;startFill=1;endArrow=none;endFill=0;strokeColor=#009900;entryX=0;entryY=0;entryDx=0;entryDy=30;entryPerimeter=0;curved=1;" parent="zIV8zk3hntRyOYn1ve9I-1" source="st4LeBl220Tw4YvidnoS-1" target="zIV8zk3hntRyOYn1ve9I-58" edge="1">
          <mxGeometry relative="1" as="geometry">
            <mxPoint x="880" y="275.1052631578948" as="targetPoint" />
            <Array as="points">
              <mxPoint x="735" y="285" />
            </Array>
          </mxGeometry>
        </mxCell>
        <mxCell id="st4LeBl220Tw4YvidnoS-14" style="edgeStyle=orthogonalEdgeStyle;orthogonalLoop=1;jettySize=auto;html=1;exitX=0;exitY=0;exitDx=120;exitDy=50;exitPerimeter=0;entryX=0;entryY=0.5;entryDx=0;entryDy=0;startArrow=none;startFill=0;endArrow=classic;endFill=1;curved=1;strokeColor=#999900;" parent="zIV8zk3hntRyOYn1ve9I-1" source="st4LeBl220Tw4YvidnoS-2" target="zIV8zk3hntRyOYn1ve9I-54" edge="1">
          <mxGeometry relative="1" as="geometry" />
        </mxCell>
        <mxCell id="st4LeBl220Tw4YvidnoS-18" style="edgeStyle=orthogonalEdgeStyle;curved=1;orthogonalLoop=1;jettySize=auto;html=1;exitX=0;exitY=0;exitDx=0;exitDy=30;exitPerimeter=0;startArrow=none;startFill=0;endArrow=classic;endFill=1;strokeColor=#999900;entryX=1;entryY=0.5;entryDx=0;entryDy=0;" parent="zIV8zk3hntRyOYn1ve9I-1" source="st4LeBl220Tw4YvidnoS-2" target="st4LeBl220Tw4YvidnoS-1" edge="1">
          <mxGeometry relative="1" as="geometry">
            <mxPoint x="600" y="350" as="targetPoint" />
            <Array as="points">
              <mxPoint x="670" y="420" />
              <mxPoint x="670" y="285" />
            </Array>
          </mxGeometry>
        </mxCell>
        <mxCell id="zIV8zk3hntRyOYn1ve9I-48" value="rh关系型数据库" style="swimlane;html=1;startSize=30;" parent="zIV8zk3hntRyOYn1ve9I-1" vertex="1">
          <mxGeometry x="910" y="40" width="160" height="740" as="geometry">
            <mxRectangle x="680" y="40" width="30" height="780" as="alternateBounds" />
          </mxGeometry>
        </mxCell>
        <mxCell id="zIV8zk3hntRyOYn1ve9I-49" style="edgeStyle=orthogonalEdgeStyle;rounded=1;orthogonalLoop=1;jettySize=auto;html=1;exitX=0.5;exitY=0;exitDx=0;exitDy=0;dashed=1;dashPattern=1 1;startArrow=none;startFill=0;" parent="zIV8zk3hntRyOYn1ve9I-48" source="zIV8zk3hntRyOYn1ve9I-50" target="zIV8zk3hntRyOYn1ve9I-51" edge="1">
          <mxGeometry relative="1" as="geometry">
            <Array as="points">
              <mxPoint x="100" y="415" />
            </Array>
          </mxGeometry>
        </mxCell>
        <mxCell id="zIV8zk3hntRyOYn1ve9I-50" value="落盘到txt文件&lt;br&gt;（188服务器）" style="rounded=1;whiteSpace=wrap;html=1;shadow=0;fillColor=none;" parent="zIV8zk3hntRyOYn1ve9I-48" vertex="1">
          <mxGeometry x="30" y="415" width="90" height="80" as="geometry" />
        </mxCell>
        <mxCell id="zIV8zk3hntRyOYn1ve9I-51" value="映射到Oracle外表&lt;br&gt;（188服务器）" style="rounded=1;whiteSpace=wrap;html=1;shadow=0;fillColor=none;arcSize=41;dashed=1;" parent="zIV8zk3hntRyOYn1ve9I-48" vertex="1">
          <mxGeometry x="40" y="340" width="120" height="60" as="geometry" />
        </mxCell>
        <mxCell id="zIV8zk3hntRyOYn1ve9I-52" value="矿山云图Oracle数据库&lt;br&gt;（249服务器）" style="rounded=1;whiteSpace=wrap;html=1;shadow=0;fillColor=none;" parent="zIV8zk3hntRyOYn1ve9I-48" vertex="1">
          <mxGeometry x="10" y="50" width="130" height="50" as="geometry" />
        </mxCell>
        <mxCell id="zIV8zk3hntRyOYn1ve9I-53" value="辅助运输Oracle数据库&lt;br&gt;（174服务器）" style="rounded=1;whiteSpace=wrap;html=1;shadow=0;fillColor=none;" parent="zIV8zk3hntRyOYn1ve9I-48" vertex="1">
          <mxGeometry x="11.25" y="160" width="127.5" height="50" as="geometry" />
        </mxCell>
        <mxCell id="zIV8zk3hntRyOYn1ve9I-54" value="人员定位Oracle数据库&lt;br&gt;（250服务器）" style="rounded=1;whiteSpace=wrap;html=1;shadow=0;fillColor=none;" parent="zIV8zk3hntRyOYn1ve9I-48" vertex="1">
          <mxGeometry x="11.25" y="240" width="135" height="60" as="geometry" />
        </mxCell>
        <mxCell id="st4LeBl220Tw4YvidnoS-8" value="产量平衡Oracle数据库&lt;br&gt;（252服务器）" style="rounded=1;whiteSpace=wrap;html=1;shadow=0;fillColor=none;" parent="zIV8zk3hntRyOYn1ve9I-48" vertex="1">
          <mxGeometry x="12.5" y="530" width="135" height="60" as="geometry" />
        </mxCell>
        <mxCell id="xk5R8RiFJCvRWizvlUMw-46" value="&lt;font&gt;&lt;font style=&quot;font-size: 24px&quot;&gt;&lt;font&gt;.&lt;br&gt;&lt;/font&gt;.&lt;br&gt;.&lt;/font&gt;&lt;br&gt;&lt;/font&gt;" style="text;html=1;align=center;verticalAlign=middle;resizable=0;points=[];autosize=1;" parent="zIV8zk3hntRyOYn1ve9I-48" vertex="1">
          <mxGeometry x="65" y="657.5" width="20" height="60" as="geometry" />
        </mxCell>
        <mxCell id="st4LeBl220Tw4YvidnoS-11" style="edgeStyle=orthogonalEdgeStyle;curved=1;orthogonalLoop=1;jettySize=auto;html=1;entryX=0;entryY=0.5;entryDx=0;entryDy=0;startArrow=none;startFill=0;endArrow=classic;endFill=1;strokeColor=#0000CC;" parent="zIV8zk3hntRyOYn1ve9I-1" target="zIV8zk3hntRyOYn1ve9I-51" edge="1">
          <mxGeometry relative="1" as="geometry">
            <mxPoint x="860" y="180" as="sourcePoint" />
          </mxGeometry>
        </mxCell>
        <mxCell id="xk5R8RiFJCvRWizvlUMw-1" style="edgeStyle=orthogonalEdgeStyle;curved=1;orthogonalLoop=1;jettySize=auto;html=1;exitX=0;exitY=0;exitDx=120;exitDy=50;exitPerimeter=0;entryX=0;entryY=0.5;entryDx=0;entryDy=0;strokeColor=#009900;" parent="zIV8zk3hntRyOYn1ve9I-1" source="zIV8zk3hntRyOYn1ve9I-58" target="zIV8zk3hntRyOYn1ve9I-53" edge="1">
          <mxGeometry relative="1" as="geometry" />
        </mxCell>
        <mxCell id="xk5R8RiFJCvRWizvlUMw-2" style="edgeStyle=orthogonalEdgeStyle;curved=1;orthogonalLoop=1;jettySize=auto;html=1;exitX=0;exitY=0;exitDx=120;exitDy=50;exitPerimeter=0;entryX=0;entryY=0.5;entryDx=0;entryDy=0;strokeColor=#009900;" parent="zIV8zk3hntRyOYn1ve9I-1" source="zIV8zk3hntRyOYn1ve9I-58" target="zIV8zk3hntRyOYn1ve9I-54" edge="1">
          <mxGeometry relative="1" as="geometry" />
        </mxCell>
        <mxCell id="st4LeBl220Tw4YvidnoS-15" style="edgeStyle=orthogonalEdgeStyle;curved=1;orthogonalLoop=1;jettySize=auto;html=1;exitX=0;exitY=0;exitDx=0;exitDy=30;exitPerimeter=0;startArrow=none;startFill=0;endArrow=classic;endFill=1;strokeColor=#999900;entryX=1;entryY=0.5;entryDx=0;entryDy=0;" parent="zIV8zk3hntRyOYn1ve9I-1" source="st4LeBl220Tw4YvidnoS-2" target="zIV8zk3hntRyOYn1ve9I-46" edge="1">
          <mxGeometry relative="1" as="geometry">
            <mxPoint x="820" y="410" as="targetPoint" />
          </mxGeometry>
        </mxCell>
        <mxCell id="xk5R8RiFJCvRWizvlUMw-3" style="edgeStyle=orthogonalEdgeStyle;orthogonalLoop=1;jettySize=auto;html=1;exitX=0;exitY=0;exitDx=120;exitDy=50;exitPerimeter=0;entryX=0;entryY=0.5;entryDx=0;entryDy=0;curved=1;strokeColor=#999900;" parent="zIV8zk3hntRyOYn1ve9I-1" source="st4LeBl220Tw4YvidnoS-2" target="zIV8zk3hntRyOYn1ve9I-51" edge="1">
          <mxGeometry relative="1" as="geometry">
            <Array as="points">
              <mxPoint x="950" y="440" />
            </Array>
          </mxGeometry>
        </mxCell>
        <mxCell id="xk5R8RiFJCvRWizvlUMw-7" style="edgeStyle=orthogonalEdgeStyle;curved=1;orthogonalLoop=1;jettySize=auto;html=1;exitX=1;exitY=0.5;exitDx=0;exitDy=0;entryX=0;entryY=0.5;entryDx=0;entryDy=0;strokeColor=#000000;" parent="zIV8zk3hntRyOYn1ve9I-1" source="zIV8zk3hntRyOYn1ve9I-46" target="zIV8zk3hntRyOYn1ve9I-50" edge="1">
          <mxGeometry relative="1" as="geometry" />
        </mxCell>
        <mxCell id="xk5R8RiFJCvRWizvlUMw-39" style="edgeStyle=orthogonalEdgeStyle;rounded=1;html=1;labelBackgroundColor=none;startArrow=none;startFill=0;startSize=5;endArrow=classicThin;endFill=1;endSize=5;jettySize=auto;orthogonalLoop=1;strokeWidth=1;fontFamily=Verdana;fontSize=8;exitX=1;exitY=0.5;exitDx=0;exitDy=0;" parent="zIV8zk3hntRyOYn1ve9I-1" source="xk5R8RiFJCvRWizvlUMw-14" target="xk5R8RiFJCvRWizvlUMw-41" edge="1">
          <mxGeometry relative="1" as="geometry">
            <mxPoint x="130" y="632.5" as="sourcePoint" />
            <Array as="points">
              <mxPoint x="155" y="630" />
              <mxPoint x="155" y="651" />
            </Array>
          </mxGeometry>
        </mxCell>
        <mxCell id="xk5R8RiFJCvRWizvlUMw-45" style="edgeStyle=orthogonalEdgeStyle;rounded=1;orthogonalLoop=1;jettySize=auto;html=1;exitX=1;exitY=0.5;exitDx=0;exitDy=0;entryX=-0.004;entryY=0.862;entryDx=0;entryDy=0;strokeColor=#000000;dashed=1;entryPerimeter=0;" parent="zIV8zk3hntRyOYn1ve9I-1" source="xk5R8RiFJCvRWizvlUMw-43" target="zIV8zk3hntRyOYn1ve9I-46" edge="1">
          <mxGeometry relative="1" as="geometry">
            <Array as="points">
              <mxPoint x="480" y="650" />
              <mxPoint x="480" y="535" />
              <mxPoint x="540" y="535" />
            </Array>
          </mxGeometry>
        </mxCell>
        <mxCell id="st4LeBl220Tw4YvidnoS-12" style="edgeStyle=orthogonalEdgeStyle;orthogonalLoop=1;jettySize=auto;html=1;exitX=0;exitY=0;exitDx=0;exitDy=30;exitPerimeter=0;startArrow=none;startFill=0;endArrow=classic;endFill=1;strokeColor=#0000CC;curved=1;" parent="1" source="zIV8zk3hntRyOYn1ve9I-57" edge="1">
          <mxGeometry relative="1" as="geometry">
            <mxPoint x="700" y="230" as="targetPoint" />
            <Array as="points">
              <mxPoint x="700" y="200" />
            </Array>
          </mxGeometry>
        </mxCell>
        <mxCell id="xk5R8RiFJCvRWizvlUMw-4" style="edgeStyle=orthogonalEdgeStyle;curved=1;orthogonalLoop=1;jettySize=auto;html=1;exitX=0;exitY=0;exitDx=120;exitDy=50;exitPerimeter=0;strokeColor=#99004D;" parent="1" source="zIV8zk3hntRyOYn1ve9I-59" edge="1">
          <mxGeometry relative="1" as="geometry">
            <mxPoint x="990.0000000000002" y="449.9999999999999" as="targetPoint" />
            <Array as="points">
              <mxPoint x="930" y="620" />
              <mxPoint x="930" y="450" />
            </Array>
          </mxGeometry>
        </mxCell>
      </root>
    </mxGraphModel>
  </diagram>
</mxfile>
